# Exported from ProBuilder
# http://www.procore3d.com/probuilder
# 3/2/2018 10:03:44 AM

mtllib ./Tunnel.mtl
o Tunnel

g Cube
v -1.9 0.81 -83
v -4.9 0.81 -83
v -1.9 1.81 -83
v -4.9 1.81 -83
v -4.9 0.81 -83
v -4.9 0.81 -546.3257
v -4.9 1.81 -83
v -4.9 1.81 -546.3257
v -4.9 0.81 -546.3257
v -1.9 0.81 -546.3257
v -4.9 1.81 -546.3257
v -1.9 1.81 -546.3257
v -1.9 0.81 -546.3257
v -1.9 0.81 -83
v -1.9 1.81 -546.3257
v -1.9 1.81 -83
v 4.01414 5.154001 -83.1003
v 3.979588 6.553051 -83.1003
v 4.01414 5.154001 -546.2255
v 3.979588 6.553051 -546.2255
v -1.9 0.81 -546.3257
v -4.9 0.81 -546.3257
v -1.9 0.81 -83
v -4.9 0.81 -83
v -1.9 1.81 -83
v -4.9 1.81 -83
v -1.9 3.81 -83
v -4.9 3.81 -83
v -1.9 1.81 -546.3257
v -1.9 1.81 -83
v -1.9 3.81 -546.3257
v -1.9 3.81 -83
v -4.9 1.81 -83
v -4.9 1.81 -546.3257
v -4.9 3.81 -83
v -4.9 3.81 -546.3257
v -4.9 1.81 -546.3257
v -1.9 1.81 -546.3257
v -4.9 3.81 -546.3257
v -1.9 3.81 -546.3257
v -1.9 3.81 -83
v -4.9 3.81 -83
v -2.249515 4.475716 -83.1003
v -4.550486 5.151752 -83.1003
v -1.9 3.81 -546.3257
v -1.9 3.81 -83
v -2.249515 4.475716 -546.2255
v -2.249515 4.475716 -83.1003
v -4.9 3.81 -83
v -4.9 3.81 -546.3257
v -4.550486 5.151752 -83.1003
v -4.550486 5.151752 -546.2255
v -4.9 3.81 -546.3257
v -1.9 3.81 -546.3257
v -4.550486 5.151752 -546.2255
v -2.249515 4.475716 -546.2255
v -2.249515 4.475716 -83.1003
v -4.550486 5.151752 -83.1003
v -2.376202 5.158046 -83.1003
v -4.423798 6.406583 -83.1003
v -2.249515 4.475716 -546.2255
v -2.249515 4.475716 -83.1003
v -2.376202 5.158046 -546.2255
v -2.376202 5.158046 -83.1003
v -4.550486 5.151752 -83.1003
v -4.550486 5.151752 -546.2255
v -4.423798 6.406583 -83.1003
v -4.423798 6.406583 -546.2255
v -4.550486 5.151752 -546.2255
v -2.249515 4.475716 -546.2255
v -4.423798 6.406583 -546.2255
v -2.376202 5.158046 -546.2255
v -2.376202 5.158046 -83.1003
v -4.423798 6.406583 -83.1003
v 2.240646 5.154001 -83.1003
v 2.206093 6.553051 -83.1003
v -2.376202 5.158046 -546.2255
v -2.376202 5.158046 -83.1003
v 2.240646 5.154001 -546.2255
v 2.240646 5.154001 -83.1003
v -4.423798 6.406583 -83.1003
v -4.423798 6.406583 -546.2255
v 2.206093 6.553051 -83.1003
v 2.206093 6.553051 -546.2255
v -4.423798 6.406583 -546.2255
v -2.376202 5.158046 -546.2255
v 2.206093 6.553051 -546.2255
v 2.240646 5.154001 -546.2255
v 2.240646 5.154001 -83.1003
v 2.206093 6.553051 -83.1003
v 4.01414 5.154001 -83.1003
v 3.979588 6.553051 -83.1003
v 1.834774 1.041027 -546.2255
v 1.834774 1.041027 -83.1003
v 4.420011 1.041027 -546.2255
v 4.420011 1.041027 -83.1003
v 2.206093 6.553051 -83.1003
v 2.206093 6.553051 -546.2255
v 3.979588 6.553051 -83.1003
v 3.979588 6.553051 -546.2255
v 2.206093 6.553051 -546.2255
v 2.240646 5.154001 -546.2255
v 3.979588 6.553051 -546.2255
v 4.01414 5.154001 -546.2255
v 2.240646 5.154001 -546.2255
v 2.240646 5.154001 -83.1003
v 2.240646 4.381158 -546.2255
v 2.240646 4.381158 -83.1003
v 4.01414 5.154001 -546.2255
v 2.240646 5.154001 -546.2255
v 4.01414 4.381158 -546.2255
v 2.240646 4.381158 -546.2255
v 2.240646 5.154001 -83.1003
v 4.01414 5.154001 -83.1003
v 2.240646 4.381158 -83.1003
v 4.01414 4.381158 -83.1003
v 4.01414 5.154001 -83.1003
v 4.01414 5.154001 -546.2255
v 4.01414 4.381158 -83.1003
v 4.01414 4.381158 -546.2255
v 2.240646 4.381158 -546.2255
v 2.240646 4.381158 -83.1003
v 1.834774 3.654986 -546.2255
v 1.834774 3.654986 -83.1003
v 4.01414 4.381158 -546.2255
v 2.240646 4.381158 -546.2255
v 4.420011 3.654986 -546.2255
v 1.834774 3.654986 -546.2255
v 2.240646 4.381158 -83.1003
v 4.01414 4.381158 -83.1003
v 1.834774 3.654986 -83.1003
v 4.420011 3.654986 -83.1003
v 4.01414 4.381158 -83.1003
v 4.01414 4.381158 -546.2255
v 4.420011 3.654986 -83.1003
v 4.420011 3.654986 -546.2255
v 1.834774 3.654986 -546.2255
v 1.834774 3.654986 -83.1003
v 1.834774 1.041027 -546.2255
v 1.834774 1.041027 -83.1003
v 4.420011 3.654986 -546.2255
v 1.834774 3.654986 -546.2255
v 4.420011 1.041027 -546.2255
v 1.834774 1.041027 -546.2255
v 1.834774 3.654986 -83.1003
v 4.420011 3.654986 -83.1003
v 1.834774 1.041027 -83.1003
v 4.420011 1.041027 -83.1003
v 4.420011 3.654986 -83.1003
v 4.420011 3.654986 -546.2255
v 4.420011 1.041027 -83.1003
v 4.420011 1.041027 -546.2255

vn 0 0 1
vn 0 0 1
vn 0 0 1
vn 0 0 1
vn -1 0 0
vn -1 0 0
vn -1 0 0
vn -1 0 0
vn 0 0 -1
vn 0 0 -1
vn 0 0 -1
vn 0 0 -1
vn 1 0 0
vn 1 0 0
vn 1 0 0
vn 1 0 0
vn 0.9996952 0.02468964 0
vn 0.9996952 0.02468964 0
vn 0.9996952 0.02468964 0
vn 0.9996952 0.02468964 0
vn 0 -1 0
vn 0 -1 0
vn 0 -1 0
vn 0 -1 0
vn 0 0 1
vn 0 0 1
vn 0 0 1
vn 0 0 1
vn 1 0 0
vn 1 0 0
vn 1 0 0
vn 1 0 0
vn -1 0 0
vn -1 0 0
vn -1 0 0
vn -1 0 0
vn 0 0 -1
vn 0 0 -1
vn 0 0 -1
vn 0 0 -1
vn 0.012679 0.09941916 0.994965
vn 0 0.07454158 0.9972178
vn 0.05145789 0.175143 0.9831973
vn 0.012679 0.09941916 0.994965
vn 0.8853904 0.4648482 0
vn 0.8853904 0.4648482 0
vn 0.8853904 0.4648483 0
vn 0.8853904 0.4648482 0
vn -0.9677067 0.252079 0
vn -0.9677067 0.252079 0
vn -0.9677067 0.252079 0
vn -0.9677067 0.252079 0
vn 0.01267717 0.09940479 -0.9949664
vn 0 0.1489555 -0.9888439
vn 0.02034431 0.06924424 -0.9973922
vn 0.01267717 0.09940479 -0.9949664
vn 2.859711E-07 6.461507E-07 1
vn 1.423143E-07 4.843837E-07 1
vn 6.306851E-07 1.034321E-06 1
vn 2.859711E-07 6.461507E-07 1
vn 0.9831967 0.182549 0
vn 0.9831968 0.182549 0
vn 0.9831968 0.182549 0
vn 0.9831967 0.182549 0
vn -0.9949422 0.1004492 0
vn -0.9949422 0.1004492 0
vn -0.9949422 0.1004492 0
vn -0.9949422 0.1004492 0
vn 0 0 -1
vn 0 0 -1
vn 0 0 -1
vn 0 0 -1
vn 0 0 1
vn 0 0 1
vn 0 0 1
vn 0 0 1
vn -0.0008760374 -0.9999996 0
vn -0.0008760374 -0.9999996 0
vn -0.0008760374 -0.9999996 0
vn -0.0008760374 -0.9999996 0
vn -0.0220867 0.9997562 0
vn -0.0220867 0.9997562 0
vn -0.0220867 0.9997562 0
vn -0.0220867 0.9997562 0
vn 0 0 -1
vn 0 0 -1
vn 0 0 -0.9999999
vn 0 0 -1
vn 0 0 1
vn 0 0 1
vn 0 0 1
vn 0 0 1
vn 0 -1 0
vn 0 -1 0
vn 0 -1 0
vn 0 -1 0
vn 0 0.9999999 0
vn 0 0.9999999 0
vn 0 0.9999999 0
vn 0 0.9999999 0
vn 0 0 -1
vn 0 0 -1
vn 0 0 -1
vn 0 0 -1
vn -1 0 0
vn -1 0 0
vn -1 0 0
vn -1 0 0
vn 0 0 -1
vn 0 0 -1
vn 0 0 -1
vn 0 0 -1
vn 0 0 1
vn 0 0 1
vn 0 0 1
vn 0 0 1
vn 1 0 0
vn 1 0 0
vn 1 0 0
vn 1 0 0
vn -0.8729079 0.4878849 0
vn -0.8729079 0.4878849 0
vn -0.8729079 0.4878849 0
vn -0.8729079 0.4878849 0
vn 0 0 -1
vn 0 0 -1
vn 0 0 -0.9999999
vn 0 0 -1
vn 0 0 1
vn 0 0 1
vn 0 0 0.9999999
vn 0 0 1
vn 0.8729082 0.4878845 0
vn 0.8729082 0.4878845 0
vn 0.8729082 0.4878845 0
vn 0.8729082 0.4878845 0
vn -1 0 0
vn -1 0 0
vn -1 0 0
vn -1 0 0
vn 0 0 -1
vn 0 0 -1
vn 0 0 -1
vn 0 0 -1
vn 0 0 1
vn 0 0 1
vn 0 0 1
vn 0 0 1
vn 1 0 0
vn 1 0 0
vn 1 0 0
vn 1 0 0

vt 1 0
vt -2 0
vt 1 1
vt -2 1
vt 0 0
vt -463.3257 0
vt 0 1
vt -463.3257 1
vt 2 0
vt -1 0
vt 2 1
vt -1 1
vt 463.3257 0
vt 0 0
vt 463.3257 1
vt 0 1
vt 0.100296 4.171969
vt 0.100296 5.571446
vt 463.2254 4.171969
vt 463.2254 5.571446
vt 1 -463.3257
vt -2 -463.3257
vt 1 0
vt -2 0
vt 1 1
vt -2 1
vt 1 3
vt -2 3
vt 463.3257 1
vt 0 1
vt 463.3257 3
vt 0 3
vt 0 1
vt -463.3257 1
vt 0 3
vt -463.3257 3
vt 2 1
vt -1 1
vt 2 3
vt -1 3
vt 1 2.966522
vt -2 2.966522
vt 0.6504855 3.639751
vt -1.650485 4.308244
vt 463.3257 2.191323
vt 0 2.191323
vt 463.2254 2.943213
vt 0.1002954 2.943213
vt 0 2.398962
vt -463.3257 2.398962
vt -0.1002954 3.78549
vt -463.2254 3.78549
vt 2 -31.54037
vt -1 -31.54037
vt 1.650485 -30.19487
vt -0.6504855 -30.86903
vt 0.6504855 3.665716
vt -1.650485 4.341753
vt 0.5237981 4.348046
vt -1.523798 5.596583
vt 463.2254 3.485374
vt 0.1002954 3.485374
vt 463.2254 4.179366
vt 0.100296 4.179366
vt -0.1002954 4.154003
vt -463.2254 4.154003
vt -0.100296 5.415212
vt -463.2254 5.415212
vt 1.650485 4.341753
vt -0.6504855 3.665716
vt 1.523798 5.596583
vt -0.5237981 4.348046
vt 0.5237981 4.348046
vt -1.523798 5.596583
vt 5.140646 4.344001
vt 5.106093 5.743051
vt 0.5199889 -463.2254
vt 0.5199889 -0.100296
vt 5.136838 -463.2254
vt 5.136838 -0.100296
vt 1.399816 -0.100296
vt 1.399816 -463.2254
vt -5.231693 -0.100296
vt -5.231693 -463.2254
vt 1.523798 5.596583
vt -0.5237981 4.348046
vt -5.106093 5.743051
vt -5.140646 4.344001
vt 5.140646 4.344001
vt 5.106093 5.743051
vt 6.91414 4.344001
vt 6.879588 5.743051
vt 4.734775 -463.2254
vt 4.734775 -0.100296
vt 7.320011 -463.2254
vt 7.320011 -0.100296
vt -5.106093 -0.100296
vt -5.106093 -463.2254
vt -6.879588 -0.100296
vt -6.879588 -463.2254
vt -5.106093 5.743051
vt -5.140646 4.344001
vt -6.879588 5.743051
vt -6.91414 4.344001
vt -463.2254 4.344001
vt -0.100296 4.344001
vt -463.2254 3.571158
vt -0.100296 3.571158
vt -6.91414 4.344001
vt -5.140646 4.344001
vt -6.91414 3.571158
vt -5.140646 3.571158
vt 5.140646 4.344001
vt 6.91414 4.344001
vt 5.140646 3.571158
vt 6.91414 3.571158
vt 0.100296 4.344001
vt 463.2254 4.344001
vt 0.100296 3.571158
vt 463.2254 3.571158
vt -463.2254 5.625336
vt -0.100296 5.625336
vt -463.2254 4.793436
vt -0.100296 4.793436
vt -6.91414 3.571158
vt -5.140646 3.571158
vt -7.320011 2.844986
vt -4.734775 2.844986
vt 5.140646 3.571158
vt 6.91414 3.571158
vt 4.734775 2.844986
vt 7.320011 2.844986
vt 0.100296 -0.2560088
vt 463.2254 -0.2560088
vt 0.100296 -1.087909
vt 463.2254 -1.087909
vt -463.2254 2.844986
vt -0.100296 2.844986
vt -463.2254 0.2310271
vt -0.100296 0.2310271
vt -7.320011 2.844986
vt -4.734775 2.844986
vt -7.320011 0.2310271
vt -4.734775 0.2310271
vt 4.734775 2.844986
vt 7.320011 2.844986
vt 4.734775 0.2310271
vt 7.320011 0.2310271
vt 0.100296 2.844986
vt 463.2254 2.844986
vt 0.100296 0.2310271
vt 463.2254 0.2310271

g Cube
usemtl Default_Prototype
f 3/3/3 4/4/4 2/2/2 1/1/1
f 7/7/7 8/8/8 6/6/6 5/5/5
f 11/11/11 12/12/12 10/10/10 9/9/9
f 15/15/15 16/16/16 14/14/14 13/13/13
f 19/19/19 20/20/20 18/18/18 17/17/17
f 23/23/23 24/24/24 22/22/22 21/21/21
f 27/27/27 28/28/28 26/26/26 25/25/25
f 31/31/31 32/32/32 30/30/30 29/29/29
f 35/35/35 36/36/36 34/34/34 33/33/33
f 39/39/39 40/40/40 38/38/38 37/37/37
f 43/43/43 44/44/44 42/42/42 41/41/41
f 47/47/47 48/48/48 46/46/46 45/45/45
f 51/51/51 52/52/52 50/50/50 49/49/49
f 55/55/55 56/56/56 54/54/54 53/53/53
f 59/59/59 60/60/60 58/58/58 57/57/57
f 63/63/63 64/64/64 62/62/62 61/61/61
f 67/67/67 68/68/68 66/66/66 65/65/65
f 71/71/71 72/72/72 70/70/70 69/69/69
f 75/75/75 76/76/76 74/74/74 73/73/73
f 79/79/79 80/80/80 78/78/78 77/77/77
f 83/83/83 84/84/84 82/82/82 81/81/81
f 87/87/87 88/88/88 86/86/86 85/85/85
f 91/91/91 92/92/92 90/90/90 89/89/89
f 95/95/95 96/96/96 94/94/94 93/93/93
f 99/99/99 100/100/100 98/98/98 97/97/97
f 103/103/103 104/104/104 102/102/102 101/101/101
f 107/107/107 108/108/108 106/106/106 105/105/105
f 111/111/111 112/112/112 110/110/110 109/109/109
f 115/115/115 116/116/116 114/114/114 113/113/113
f 119/119/119 120/120/120 118/118/118 117/117/117
f 123/123/123 124/124/124 122/122/122 121/121/121
f 127/127/127 128/128/128 126/126/126 125/125/125
f 131/131/131 132/132/132 130/130/130 129/129/129
f 135/135/135 136/136/136 134/134/134 133/133/133
f 139/139/139 140/140/140 138/138/138 137/137/137
f 143/143/143 144/144/144 142/142/142 141/141/141
f 147/147/147 148/148/148 146/146/146 145/145/145
f 151/151/151 152/152/152 150/150/150 149/149/149

